<?xml version="1.0" standalone="no"?><!DOCTYPE svg PUBLIC "-//W3C//DTD SVG 1.1//EN" "http://www.w3.org/Graphics/SVG/1.1/DTD/svg11.dtd"><svg t="1758684512575" class="icon" viewBox="0 0 1033 1024" version="1.1" xmlns="http://www.w3.org/2000/svg" p-id="842" width="20.17578125" height="20" xmlns:xlink="http://www.w3.org/1999/xlink"><path d="M885.387125 419.420579c56.263736 0 102.297702 46.033966 102.297702 102.297703s-46.033966 102.297702-102.297702 102.297702h-342.697303c-56.263736 0-102.297702-46.033966-102.297702-102.297702s46.033966-102.297702 102.297702-102.297703h342.697303z m-5.114885 25.574426c-42.453546 0-76.723277 34.26973-76.723277 76.723277s34.26973 76.723277 76.723277 76.723276 76.723277-34.26973 76.723276-76.723276-34.26973-76.723277-76.723276-76.723277z" p-id="843" fill="#CED0D6"></path><path d="M558.545966 0c15.344655 0 28.131868 11.252747 30.177822 26.597403l18.925075 132.475524a363.156843 363.156843 0 0 1 85.93007 35.804196l106.901099-80.303696c12.275724-9.206793 29.154845-8.183816 39.896104 3.068931L905.846665 183.112887c10.741259 10.741259 11.764236 28.131868 3.068931 39.896104l-80.303696 106.901099c7.672328 13.298701 14.833167 27.62038 20.971029 42.453546h-167.768232a220.042358 220.042358 0 0 0-170.325674-80.303696c-121.222777 0-219.94006 98.717283-219.94006 219.94006s98.717283 220.451548 219.94006 219.94006c33.246753 1.022977 62.913087 1.534466 88.999001-0.511489l60.355644 114.061938c-17.390609 7.672328-35.292707 14.321678-53.706293 19.436564l-18.925075 132.475524c-2.045954 15.344655-15.344655 26.597403-30.177822 26.597403H464.943568c-15.344655 0-28.131868-11.252747-30.177822-26.597403l-18.925075-132.475524c-30.177822-8.183816-58.821179-19.948052-85.93007-35.804196l-106.901099 80.303696c-12.275724 9.206793-29.154845 8.183816-39.896103-3.068931l-65.47053-65.470529c-10.741259-10.741259-11.764236-28.131868-3.068931-39.896104L194.877634 694.08991c-15.344655-27.108891-27.62038-55.752248-35.804195-85.93007l-132.475525-18.925075c-15.344655-2.045954-26.597403-15.344655-26.597403-30.177822V465.966034c0-15.344655 11.252747-28.131868 26.597403-30.177822L159.073439 416.863137c8.183816-30.177822 19.948052-58.821179 35.804195-85.93007L114.573938 224.031968c-9.206793-12.275724-8.183816-29.154845 3.068931-39.896104l65.47053-65.470529c10.741259-10.741259 28.131868-11.764236 39.896103-3.068931l106.901099 80.303696c27.108891-15.344655 55.752248-27.62038 85.93007-35.804196l18.925075-132.475524c2.557443-16.367632 15.344655-27.62038 30.689311-27.62038h93.090909z m165.722278 655.216783l230.681318 37.85015c5.114885 1.022977 10.22977 3.58042 13.81019 7.160839 10.22977 10.22977 10.22977 26.085914 0 36.315685l-30.177822 30.177822c-10.22977 10.22977-10.22977 26.085914 0 36.315684l84.395604 84.395604c10.22977 10.22977 10.22977 26.085914 0 36.315685l-60.355644 60.355644c-10.22977 10.22977-26.085914 10.22977-36.315684 0l-84.395605-84.395604c-10.22977-10.22977-26.085914-10.22977-36.315684 0l-30.689311 30.68931c-3.58042 3.58042-8.695305 6.137862-13.810189 7.16084-13.81019 2.045954-27.108891-7.160839-29.154846-20.971029l-37.338661-230.681319v-8.183816c2.045954-13.81019 13.298701-23.016983 29.666334-22.505495zM552.919592 434.765235c48.07992 0 86.953047 38.873127 86.953047 86.953047s-38.873127 86.953047-86.953047 86.953047-86.953047-38.873127-86.953047-86.953047 38.873127-86.953047 86.953047-86.953047z" p-id="844" fill="#CED0D6"></path></svg>